<svg width="155" height="50" viewBox="0 0 155 50" fill="none" xmlns="http://www.w3.org/2000/svg">
<g clip-path="url(#clip0_22_26958)">
<path d="M154.605 32.3446V4.22032C154.605 1.89058 152.703 0 150.36 0H136.613H4.2453C1.90177 0 0 1.89058 0 4.22032V45.7797C0 48.1094 1.90177 50 4.2453 50H135.344C136.392 50 137.403 49.6129 138.186 48.917L153.201 35.4819C154.092 34.6818 154.605 33.5393 154.605 32.3446Z" fill="#46B2C8"/>
<path d="M38.073 39.4827H32.1767C30.3049 39.4827 28.7812 37.968 28.7812 36.1072V13.8928C28.7812 12.032 30.3049 10.5173 32.1767 10.5173H38.0692C39.9411 10.5173 41.4647 12.032 41.4647 13.8928V36.1035C41.4685 37.968 39.9448 39.4827 38.073 39.4827ZM32.1767 13.316C31.8585 13.316 31.5965 13.5728 31.5965 13.8928V36.1035C31.5965 36.4198 31.8548 36.6803 32.1767 36.6803H38.0692C38.3875 36.6803 38.6495 36.4235 38.6495 36.1035V13.8928C38.6495 13.5765 38.3912 13.316 38.0692 13.316H32.1767Z" fill="#C7E8EF"/>
<path d="M107.716 10.5435H104.9V39.4605H107.716V10.5435Z" fill="white"/>
<path d="M86.0511 13.316V10.5173H74.7715V39.4827H86.0511V36.6803H77.5904V29.6688H82.7604V26.8701H77.5904V13.316H86.0511Z" fill="white"/>
<path d="M72.7007 10.5286L69.4999 36.7176C69.1929 38.3365 67.8228 39.4679 66.1643 39.4679C64.5059 39.4679 63.132 38.3365 62.8287 36.7176L62.8138 36.6283L59.6504 10.5286H62.4881L65.6028 36.2338C65.6889 36.5911 65.951 36.6692 66.1643 36.6692C66.374 36.6692 66.6398 36.5911 66.7259 36.2338L69.8631 10.5286H72.7007Z" fill="white"/>
<path d="M57.6737 10.5173V36.1035C57.6737 37.9643 56.1501 39.479 54.2782 39.479H48.3895C46.5139 39.479 44.9902 37.9643 44.9902 36.1035V10.5173H47.8055V36.1035C47.8055 36.4235 48.0675 36.6803 48.3895 36.6803H54.2782C54.6002 36.6803 54.8585 36.4198 54.8585 36.1035V10.5173H57.6737Z" fill="#C7E8EF"/>
<path d="M122.858 13.3309V10.5286H111.578V39.4716H114.397V29.6838H119.567V26.8851H114.397V13.3309H122.858Z" fill="white"/>
<path d="M24.8123 10.5173L20.7954 23.4016L17.0367 10.5173H14.1055L19.3428 28.463V39.4567H22.1581V28.489L27.7586 10.5173H24.8123Z" fill="#C7E8EF"/>
<path d="M134.025 10.5173L130.008 23.4016L126.246 10.5173H123.314L128.552 28.463V39.4567H131.367V28.489L136.971 10.5173H134.025Z" fill="white"/>
<path d="M95.6796 28.8761C99.1463 27.38 101.576 23.9449 101.576 19.9591V13.8928C101.576 12.032 100.056 10.5173 98.1804 10.5173H92.2842C90.4123 10.5173 88.8887 12.032 88.8887 13.8928V28.2695V29.6688V39.4529H91.7039V29.6725H91.8012C92.1344 29.6725 92.4639 29.6539 92.7858 29.6241L99.3896 39.4604H102.781L95.6796 28.8761ZM91.7076 26.8739V13.8966C91.7076 13.5765 91.9659 13.3197 92.2842 13.3197H98.1804C98.4986 13.3197 98.7569 13.5802 98.7569 13.8966V19.9628C98.7569 23.7738 95.6385 26.8739 91.805 26.8739H91.7076Z" fill="white"/>
</g>
<defs>
<clipPath id="clip0_22_26958">
<rect width="154.605" height="50" fill="white"/>
</clipPath>
</defs>
</svg>
